<?xml version="1.0" encoding="UTF-8"?>
<svg id="Layer_1" xmlns="http://www.w3.org/2000/svg" xmlns:xlink="http://www.w3.org/1999/xlink" version="1.1" viewBox="0 0 20 20">
  <defs>
    <style>
      .st0 {
        mask: url(#mask);
      }

      .st1 {
        fill: currentColor;
      }

      .st2 {
        mask: url(#mask-2);
      }

      .st3 {
        mask: url(#mask-1);
      }

      .st4 {
        fill: #fff;
      }
    </style>
    <mask id="mask" x=".8" y="3" width="18.2" height="16.7" maskUnits="userSpaceOnUse">
      <g id="path-1-inside-1_135_984">
        <path class="st4" d="M1.3,4c0-.6.4-1,1-1h15c.6,0,1,.4,1,1v14c0,.6-.4,1-1,1H2.3c-.6,0-1-.4-1-1V4Z"/>
      </g>
    </mask>
    <mask id="mask-1" x="1.3" y="3" width="17" height="16" maskUnits="userSpaceOnUse">
      <g id="path-1-inside-1_135_9841" data-name="path-1-inside-1_135_984">
        <path class="st4" d="M1.3,4c0-.6.4-1,1-1h15c.6,0,1,.4,1,1v14c0,.6-.4,1-1,1H2.3c-.6,0-1-.4-1-1V4Z"/>
      </g>
    </mask>
    <mask id="mask-2" x="0" y=".3" width="20" height="7.4" maskUnits="userSpaceOnUse">
      <g id="path-3-inside-2_135_984">
        <path class="st4" d="M.3,2c0-.6.4-1,1-1h17c.6,0,1,.4,1,1v4c0,.6-.4,1-1,1H1.3c-.6,0-1-.4-1-1V2Z"/>
      </g>
    </mask>
  </defs>
  <g class="st0">
    <path class="st1" d="M1.1,6.8c-.2,3.7-.3,7.4-.4,11.2,0,.8.7,1.6,1.5,1.6,5,.1,10,.2,15,.2h0c.9,0,1.8-.8,1.7-1.7,0-3.8,0-7.6-.1-11.3h-1.3c0,3.8-.1,7.6-.1,11.3,0,.1-.1.3-.3.2h0c-5,0-10,0-15,.2-.2,0-.4-.2-.4-.4,0-3.7-.2-7.4-.4-11.2"/>
  </g>
  <g class="st3">
    <path class="st1" d="M2.3,3"/>
  </g>
  <g class="st2">
    <path class="st1" d="M1.3,1c.8,0,1.6,0,2.4.1,4.8.3,9.7.5,14.5.5.2,0,.3.2.3.3,0,1.3,0,2.7,0,4,0,.1-.1.3-.3.2-5.7,0-11.3.1-17,.4-.3,0-.7-.3-.7-.6,0-1-.1-2.1-.2-3.1,0-.3,0-.6,0-.8,0-.5.4-1,.9-1-.5,0-1.1.4-1.1,1,0,.3,0,.6,0,.8C.1,3.9,0,4.9,0,6c0,.7.6,1.4,1.3,1.4,5.7.2,11.3.4,17,.4h0c.9,0,1.8-.8,1.7-1.7,0-1.3,0-2.7,0-4,0-.9-.8-1.7-1.7-1.7-4.8,0-9.7.3-14.5.5-.8,0-1.6,0-2.4.1Z"/>
  </g>
  <path class="st1" d="M6.3,9.8c.1,0,.2,0,.3,0,1,.1,2.1.2,3.1.2s2.1,0,3.1-.2c.1,0,.2,0,.3,0-.1,0-.2,0-.3,0-1-.1-2.1-.2-3.1-.2s-2.1,0-3.1.2c-.1,0-.2,0-.3,0Z"/>
</svg>