<?xml version="1.0" encoding="UTF-8"?>
<svg id="Layer_1" xmlns="http://www.w3.org/2000/svg" xmlns:xlink="http://www.w3.org/1999/xlink" version="1.1" viewBox="0 0 20 20">
  <!-- Generator: Adobe Illustrator 30.2.1, SVG Export Plug-In . SVG Version: 2.1.1 Build 1)  -->
  <defs>
    <style>
      .st0 {
        mask: url(#mask);
      }

      .st1 {
       fill: currentColor;
      }

      .st2 {
        fill: #fff;
      }
    </style>
    <mask id="mask" x="0" y="2.2" width="20" height="15.6" maskUnits="userSpaceOnUse">
      <g id="path-2-inside-1_135_1029">
        <path class="st2" d="M.3,3.6c0-.6.5-1,1-1h17.1c.6,0,1,.5,1,1v12.7c0,.6-.5,1-1,1H1.4c-.6,0-1-.5-1-1V3.6Z"/>
      </g>
    </mask>
  </defs>
  <path class="st1" d="M1.1,3.3c.3.2.6.5.9.7,2.6,2.1,5.2,4.1,7.8,6.1h.2c0,.1.2,0,.2,0,2.7-2,5.3-4,7.8-6.1.3-.2.6-.5.9-.7-.3.2-.6.4-.9.6-2.7,1.9-5.4,3.8-8.1,5.8h.3c-2.7-2-5.3-3.9-8.1-5.8-.3-.2-.6-.4-.9-.6Z"/>
  <g class="st0">
    <path class="st1" d="M1.4,2.6c1.1,0,2.2,0,3.3,0,4.6.1,9.2.2,13.8.3.3,0,.6.3.6.6,0,4.2,0,8.5,0,12.7,0,.3-.2.5-.5.5-5.7,0-11.4,0-17.1.1-.3,0-.7-.3-.7-.6,0-3.7-.1-7.3-.2-11,0-.6,0-1.1,0-1.7,0-.5.4-1,1-1-.5,0-1.1.4-1.1,1,0,.6,0,1.1,0,1.7C.1,9,0,12.6,0,16.3c0,.7.6,1.4,1.4,1.4,5.7,0,11.4.1,17.1.1h0c.8,0,1.5-.7,1.5-1.5,0-4.2,0-8.5,0-12.7,0-.8-.7-1.4-1.4-1.4-4.6,0-9.2.2-13.8.3-1.1,0-2.2,0-3.3,0Z"/>
  </g>
</svg>