<?xml version="1.0" encoding="UTF-8"?>
<svg id="Layer_1" xmlns="http://www.w3.org/2000/svg" xmlns:xlink="http://www.w3.org/1999/xlink" version="1.1" viewBox="0 0 20 20">
 
  <defs>
    <style>
      .st0 {
        mask: url(#mask);
      }

      .st1 {
       fill: currentColor;
      }

      .st2 {
        mask: url(#mask-2);
      }

      .st3 {
        mask: url(#mask-1);
      }

      .st4 {
        fill: #fff;
      }
    </style>
    <mask id="mask" x="0" y=".3" width="10" height="19.6" maskUnits="userSpaceOnUse">
      <g id="path-1-inside-1_135_870">
        <path class="st4" d="M.7,1.6c0-.6.5-1,1-1h6.5c.6,0,1,.5,1,1v16.5c0,.6-.5,1-1,1H1.7c-.6,0-1-.5-1-1V1.6Z"/>
      </g>
    </mask>
    <mask id="mask-1" x="10.1" y="0" width="9.9" height="9.8" maskUnits="userSpaceOnUse">
      <g id="path-3-inside-2_135_870">
        <path class="st4" d="M10.7,1.6c0-.6.5-1,1-1h6.5c.6,0,1,.5,1,1v6.5c0,.6-.5,1-1,1h-6.5c-.6,0-1-.5-1-1V1.6Z"/>
      </g>
    </mask>
    <mask id="mask-2" x="10.1" y="10.1" width="9.9" height="9.8" maskUnits="userSpaceOnUse">
      <g id="path-5-inside-3_135_870">
        <path class="st4" d="M10.7,11.6c0-.6.5-1,1-1h6.5c.6,0,1,.5,1,1v6.5c0,.6-.5,1-1,1h-6.5c-.6,0-1-.5-1-1v-6.5Z"/>
      </g>
    </mask>
  </defs>
  <g class="st0">
    <path class="st1" d="M1.7.6c.9,0,1.7.1,2.6.1,1.3,0,2.6.1,3.9.2.4,0,.7.4.6.7-.2,5.5-.3,11-.4,16.5,0,.1-.1.3-.3.3h0c-2.2,0-4.3,0-6.5,0-.2,0-.3-.1-.3-.3,0-5.2-.3-10.3-.6-15.5,0-.3,0-.7,0-1,0-.5.4-1,.9-1-.5,0-1.1.4-1.1,1,0,.3,0,.7,0,1C.3,7.8,0,12.9,0,18.1c0,.9.8,1.8,1.7,1.8,2.2,0,4.3,0,6.5,0h0c1,0,1.8-.8,1.8-1.8,0-5.5-.1-11-.4-16.5,0-.8-.7-1.4-1.4-1.4-1.3,0-2.6.1-3.9.2-.9,0-1.7,0-2.6.1Z"/>
  </g>
  <g class="st3">
    <path class="st1" d="M11.7.6c.5,0,1.1.1,1.6.1,1.6.1,3.2.3,4.9.3.3,0,.5.3.5.5-.1,2.2-.2,4.3-.2,6.5,0,.1-.1.3-.3.3h0c-2.2,0-4.3,0-6.5.1-.2,0-.4-.1-.5-.4-.1-2.2-.2-4.3-.4-6.5,0,0,0,0,0,0,0-.5.3-1,.9-1-.5,0-1.1.4-1.2,1,0,0,0,0,0,0-.2,2.2-.3,4.3-.4,6.5,0,.9.7,1.7,1.6,1.7,2.2,0,4.3.1,6.5.1,1,0,1.8-.8,1.8-1.8,0-2.2,0-4.3-.2-6.5,0-.9-.8-1.6-1.6-1.5-1.6,0-3.2.2-4.9.3-.5,0-1.1,0-1.6.1Z"/>
  </g>
  <g class="st2">
    <path class="st1" d="M11.7,10.6c.5,0,1.1.1,1.6.1,1.6.1,3.2.3,4.9.3.3,0,.5.3.5.5-.1,2.2-.2,4.3-.2,6.5,0,.1-.1.3-.3.3h0c-2.2,0-4.3,0-6.5.1-.2,0-.4-.1-.5-.4-.1-2.2-.2-4.3-.4-6.5,0,0,0,0,0,0,0-.5.3-1,.9-1-.5,0-1.1.4-1.2,1,0,0,0,0,0,0-.2,2.2-.3,4.3-.4,6.5,0,.9.7,1.7,1.6,1.7,2.2,0,4.3.1,6.5.1,1,0,1.8-.8,1.8-1.8,0-2.2,0-4.3-.2-6.5,0-.9-.8-1.6-1.6-1.5-1.6,0-3.2.2-4.9.3-.5,0-1.1,0-1.6.1Z"/>
  </g>
</svg>