<svg width="19" height="19" viewBox="0 0 19 19" fill="none" xmlns="http://www.w3.org/2000/svg">
<path d="M0 1C0.0872007 1.09436 0.174935 1.18808 0.263203 1.28117C0.780967 1.82717 1.31709 2.35115 1.87156 2.8531C2.15621 3.11517 2.63943 3.12769 2.9427 2.87022C3.03693 2.79367 3.13067 2.71653 3.22393 2.63882C4.10477 1.90479 4.94239 1.11891 5.7368 0.281167C5.82507 0.188085 5.9128 0.0943624 6 0C5.89146 0.0687551 5.78345 0.13815 5.67598 0.208186C4.70872 0.838504 3.78467 1.52068 2.90384 2.25471C2.81058 2.33242 2.71781 2.41072 2.62552 2.4896C2.50356 2.59942 2.30079 2.61194 2.16021 2.50672C1.56651 2.05185 0.954441 1.619 0.32402 1.20819C0.216547 1.13815 0.10854 1.06876 0 1Z" fill= "currentColor"/>
<path d="M0 8.66667C0.0880496 8.7519 0.176592 8.83647 0.265627 8.92036C0.82827 9.45051 1.41059 9.95383 2.01259 10.4303C2.28631 10.649 2.70865 10.6605 2.99813 10.4503C3.05942 10.4073 3.12053 10.364 3.18145 10.3205C4.07061 9.68536 4.92053 8.99532 5.73122 8.25036C5.8213 8.16758 5.91089 8.08413 6 8C5.89152 8.05701 5.78352 8.11469 5.67601 8.17305C4.70838 8.69831 3.77999 9.2785 2.89083 9.91361C2.82991 9.95713 2.76917 10.0009 2.70861 10.0449C2.59122 10.1336 2.41641 10.1414 2.28703 10.0561C1.65163 9.62514 0.99656 9.22103 0.321807 8.84375C0.215031 8.78405 0.107762 8.72502 0 8.66667Z" fill="currentColor"/>
<path d="M0 16C0.0872007 16.0944 0.174935 16.1881 0.263203 16.2812C0.780967 16.8272 1.31709 17.3511 1.87156 17.8531C2.15621 18.1152 2.63943 18.1277 2.9427 17.8702C3.03693 17.7937 3.13067 17.7165 3.22393 17.6388C4.10477 16.9048 4.94239 16.1189 5.7368 15.2812C5.82507 15.1881 5.9128 15.0944 6 15C5.89146 15.0688 5.78345 15.1382 5.67598 15.2082C4.70872 15.8385 3.78467 16.5207 2.90384 17.2547C2.81058 17.3324 2.71781 17.4107 2.62552 17.4896C2.50356 17.5994 2.30079 17.6119 2.16021 17.5067C1.56651 17.0518 0.954441 16.619 0.32402 16.2082C0.216547 16.1382 0.10854 16.0688 0 16Z" fill="currentColor"/>
<path d="M8 1.6C8.18333 1.62667 8.36667 1.652 8.55 1.676C10.2 1.892 11.85 2 13.5 2C15.15 2 16.8 1.892 18.45 1.676C18.6333 1.652 18.8167 1.62667 19 1.6C18.8167 1.57333 18.6333 1.548 18.45 1.524C16.8 1.308 15.15 1.2 13.5 1.2C11.85 1.2 10.2 1.308 8.55 1.524C8.36667 1.548 8.18333 1.57333 8 1.6Z" fill="white" fill-opacity="0.6"/>
<path d="M8 8.6C8.18333 8.62667 8.36667 8.652 8.55 8.676C10.2 8.892 11.85 9 13.5 9C15.15 9 16.8 8.892 18.45 8.676C18.6333 8.652 18.8167 8.62667 19 8.6C18.8167 8.57333 18.6333 8.548 18.45 8.524C16.8 8.308 15.15 8.2 13.5 8.2C11.85 8.2 10.2 8.308 8.55 8.524C8.36667 8.548 8.18333 8.57333 8 8.6Z" fill="white" fill-opacity="0.6"/>
<path d="M8 15.6C8.18333 15.6267 8.36667 15.652 8.55 15.676C10.2 15.892 11.85 16 13.5 16C15.15 16 16.8 15.892 18.45 15.676C18.6333 15.652 18.8167 15.6267 19 15.6C18.8167 15.5733 18.6333 15.548 18.45 15.524C16.8 15.308 15.15 15.2 13.5 15.2C11.85 15.2 10.2 15.308 8.55 15.524C8.36667 15.548 8.18333 15.5733 8 15.6Z" fill="white" fill-opacity="0.6"/>
</svg>
