<svg width="21" height="27" viewBox="0 0 21 27" fill="none" xmlns="http://www.w3.org/2000/svg">
<path d="M17.024 0C19.392 0 20.352 1.6 20.352 3.456C20.352 4.768 19.744 6.08 18.688 6.08C18.112 6.08 17.728 5.664 17.728 5.152C17.728 4.32 18.496 3.552 18.496 2.656C18.496 1.6 18.048 1.024 16.8 1.024C14.304 1.024 12.672 3.808 11.648 7.776C11.2 9.504 10.816 11.328 10.336 13.248H15.2L14.88 14.24H10.08C9.28 17.6 8.352 21.024 6.912 23.456C8.192 24.192 9.536 24.992 11.36 24.992C14.304 24.992 15.648 22.432 16.704 19.648H17.472C16.48 22.688 14.848 26.88 10.88 26.88C8.768 26.88 7.36 25.696 6.08 24.704C4.992 26.048 3.68 26.88 2.016 26.88C0.512 26.88 0 26.208 0 25.152C0 23.456 1.696 22.272 3.584 22.272C4.32 22.272 5.024 22.496 5.664 22.784C6.592 20.768 7.296 17.856 8 14.624L8.096 14.24H4.704L5.024 13.248H8.32C9.792 6.848 11.776 0 17.024 0ZM2.304 25.76C3.424 25.76 4.288 25.088 5.024 23.968C4.48 23.616 3.904 23.36 3.264 23.36C2.048 23.36 1.248 24.064 1.248 24.928C1.248 25.44 1.536 25.76 2.304 25.76Z" fill="#33101C"/>
</svg>
