<svg width="28" height="28" viewBox="0 0 28 28" fill="none" xmlns="http://www.w3.org/2000/svg">
<path d="M1.44085 20.3069C1.19081 21.6044 0.942412 22.9022 0.695662 24.2002C0.476947 25.3507 0.259524 26.5015 0.0433929 27.6525L4.38243e-05 27.8842L0.240001 27.8491C2.70625 27.4897 5.17153 27.1246 7.63583 26.7535L7.72806 26.7397L7.80195 26.6681C13.7098 20.943 19.572 15.1722 25.3885 9.35576C26.1263 8.61792 26.8634 7.87935 27.5998 7.14005L27.9511 6.7901L27.5998 6.43735C25.5475 4.39322 23.4895 2.35475 21.4258 0.321946L21.1086 -0.000114739L20.7817 0.321946C15.2037 5.98451 9.6684 11.6898 4.17578 17.4377C3.26296 18.3929 2.35131 19.3493 1.44085 20.3069C2.39845 19.3965 3.35488 18.4848 4.31013 17.572C10.058 12.0794 15.7633 6.5441 21.4258 0.96614H20.7817C22.8145 3.02978 24.8529 5.08775 26.8971 7.14005V6.43735C26.1578 7.17372 25.4192 7.91081 24.6813 8.64865C18.8649 14.4651 13.0941 20.3273 7.36905 26.2352L7.53518 26.1497C5.08376 26.5979 2.6333 27.052 0.183827 27.512L0.380435 27.7086C0.549274 26.5498 0.716821 25.3907 0.883076 24.2314C1.07064 22.9235 1.25657 21.6154 1.44085 20.3069ZM1.44085 20.3069" fill="#D8CFB6"/>
</svg>
