<svg width="1440" height="271" viewBox="0 0 1440 271" fill="none" xmlns="http://www.w3.org/2000/svg">
<mask id="mask0_101_3379" style="mask-type:alpha" maskUnits="userSpaceOnUse" x="-2" y="0" width="1442" height="271">
<rect x="-2" width="1442" height="271" fill="#F3EEE6"/>
</mask>
<g mask="url(#mask0_101_3379)">
<path d="M1009.24 -31.1589L988.4 271.487H991.571L1193.18 -29.3467C1208.59 -51.9998 1211.09 -47.0539 1165.88 -56.0963L1247.26 -28.9691C1226.42 -28.9691 1228.52 -52.906 1212.21 -29.3467L985.035 305.6L966.95 296.557L981.151 -30.7059C982.963 -59.2488 978.886 -65.1387 949.89 -65.1387H954.42H1058.62H1054.09C1016.49 -65.1387 1011.05 -58.3427 1009.24 -31.1589Z" fill="#D8CFB6"/>
<path d="M1037.38 -72.8052C1210.44 -86.4023 1360.32 18.9438 1501.76 96.1746C1502.81 96.7097 1503.88 97.247 1504.94 97.7818L1517 103.875L1507.59 113.588C1375.65 239.167 1196.86 326.988 1011.6 312.786C878.562 302.551 758.954 240.444 643.967 180.7C613.142 164.79 582.286 148.988 551 133.792C582.843 147.785 614.283 162.465 645.645 177.309C762.861 233.236 882.87 291.137 1012.73 298.41C1187.21 308.624 1357.26 225.281 1483.57 108.82C1340.5 29.8222 1204.24 -66.8729 1037.38 -57.4755C893.265 -59.5156 742.33 -29.5218 629.167 65.1973C602.087 86.7692 577.452 111.404 551 133.792C576.558 110.427 600.258 84.9208 626.748 62.2833C737.3 -37.1475 891.372 -72.383 1037.38 -72.8052Z" fill="#D8CFB6"/>
</g>
</svg>
