<svg width="17" height="24" viewBox="0 0 17 24" fill="none" xmlns="http://www.w3.org/2000/svg">
<path d="M4.02621 5.52872C5.04572 3.75035 6.15774 2.04141 7.36384 0.402913C7.5431 0.155415 7.85622 -0.00186312 8.16257 0.00135265C8.46892 -0.00201137 8.78212 0.155115 8.9615 0.402527C10.1684 2.04044 11.2812 3.74884 12.3016 5.52672C12.4236 5.73928 12.5447 5.9527 12.6641 6.16726C12.4915 5.9928 12.3202 5.81747 12.1503 5.64101C10.7285 4.16432 9.40003 2.61704 8.16477 1.00038C8.16021 0.997974 8.16634 1.00255 8.16281 1.00135C8.15929 1.00256 8.16541 0.997973 8.16086 1.00038C6.92637 2.61764 5.59869 4.16556 4.17761 5.64294C4.0078 5.81948 3.83654 5.9949 3.66406 6.16943C3.78329 5.95482 3.90432 5.74134 4.02621 5.52872Z" fill="#D8CFB6"/>
<path d="M8.96289 12.126C8.96289 14.8164 8.82759 17.5068 8.55762 20.1973C8.52762 20.4962 8.49622 20.7958 8.46289 21.0947C8.42956 20.7958 8.39816 20.4962 8.36816 20.1973C8.0982 17.5068 7.96289 14.8164 7.96289 12.126C7.96289 9.43537 8.09816 6.74432 8.36816 4.05371C8.39815 3.75489 8.42957 3.45605 8.46289 3.15723C8.49621 3.45605 8.52763 3.75489 8.55762 4.05371C8.82762 6.74432 8.96289 9.43537 8.96289 12.126Z" fill="#D8CFB6"/>
<path d="M16.553 15.1489C16.6767 17.5762 16.7721 20.0038 16.8391 22.4312C16.8721 23.1662 16.2165 23.8563 15.4582 23.8511C13.1122 23.904 10.7662 23.9312 8.42014 23.9312C6.07411 23.9312 3.72809 23.904 1.38206 23.8511C0.623794 23.8563 -0.0318435 23.1662 0.00119711 22.4312C0.0682264 20.0038 0.163603 17.5762 0.28733 15.1489C0.317329 14.5604 0.348724 13.9718 0.382056 13.3833C0.415389 13.9718 0.446784 14.5604 0.476783 15.1489C0.60051 17.5762 0.695887 20.0038 0.762916 22.4312C0.77033 22.7612 1.07514 23.0309 1.38206 23.0103C3.72808 22.9573 6.07411 22.9312 8.42014 22.9312C10.7662 22.9312 13.1122 22.9573 15.4582 23.0103C15.7651 23.0309 16.07 22.7612 16.0774 22.4312C16.1444 20.0038 16.2398 17.5762 16.3635 15.1489C16.3935 14.5604 16.4249 13.9718 16.4582 13.3833C16.4916 13.9718 16.523 14.5604 16.553 15.1489Z" fill="#D8CFB6"/>
</svg>
