<svg width="35" height="35" viewBox="0 0 35 35" fill="none" xmlns="http://www.w3.org/2000/svg">
<path d="M29.1673 14.9998C28.7801 15.0841 28.3933 15.17 28.0071 15.2574C24.9909 15.9404 22.0046 16.7205 19.0482 17.5977C18.8178 17.6684 18.551 17.5483 18.4507 17.3344C18.4467 17.3264 18.443 17.3183 18.4395 17.31C17.0452 14.06 15.528 10.8627 13.888 7.718C13.7048 7.36684 13.5202 7.01635 13.334 6.6665C13.4589 7.04261 13.5854 7.41805 13.7133 7.79284C14.8595 11.1492 16.1285 14.4529 17.5203 17.7039C17.5308 17.7283 17.5418 17.7522 17.5534 17.7759C17.858 18.4233 18.6639 18.7661 19.3381 18.5399C22.2763 17.6034 25.1845 16.5698 28.0629 15.439C28.4316 15.2942 28.7997 15.1478 29.1673 14.9998Z" fill="#33101C"/>
<mask id="path-2-inside-1_104_3773" fill="white">
<circle cx="17.5" cy="17.5" r="17.5"/>
</mask>
<path d="M35 17.5C34.9006 19.3355 34.5197 21.1349 33.8768 22.8217C31.3513 29.6431 24.3965 34.1775 17.5 33.875C8.78278 33.8041 1.30493 25.9967 1.5 17.5C1.5 17.5 1.5 17.5 1.5 17.5C1.30493 9.00327 8.78278 1.1959 17.5 1.125C24.3965 0.822549 31.3513 5.35692 33.8768 12.1783C34.5197 13.8651 34.9006 15.6645 35 17.5C35.1007 15.6648 34.9094 13.8021 34.4189 12.0023C32.5504 4.73105 25.3823 -1.04092 17.5 -1.125C7.57407 -1.6492 -1.75824 7.35359 -1.5 17.5C-1.5 17.5 -1.5 17.5 -1.5 17.5C-1.75824 27.6464 7.57407 36.6492 17.5 36.125C25.3823 36.0409 32.5504 30.269 34.4189 22.9977C34.9094 21.1979 35.1007 19.3352 35 17.5ZM35 17.5" fill="#33101C" mask="url(#path-2-inside-1_104_3773)"/>
</svg>
