<svg width="14" height="18" viewBox="0 0 14 18" fill="none" xmlns="http://www.w3.org/2000/svg">
<mask id="path-1-inside-1_135_879" fill="white">
<path d="M0 1C0 0.447716 0.447715 0 1 0H13C13.5523 0 14 0.447715 14 1V17C14 17.5523 13.5523 18 13 18H1C0.447716 18 0 17.5523 0 17V1Z"/>
</mask>
<path d="M1 0C2.03806 0.05 3.07611 0.0975 4.11417 0.1425C7.07612 0.270901 10.0381 0.378948 13 0.46664C13.2847 0.475968 13.5111 0.741479 13.4888 1C13.3438 6.33333 13.2649 11.6667 13.2519 17C13.2547 17.1334 13.1322 17.2541 13 17.25C13 17.25 13 17.25 13 17.25C9 17.25 5 17.2871 1 17.3614C0.809107 17.3773 0.613666 17.2092 0.607574 17C0.506425 12.1811 0.3514 7.36221 0.1425 2.54331C0.120199 2.02888 0.0972841 1.51444 0.0737551 1C0.0358387 0.508775 0.46541 0.014393 1 0C0.469267 -0.0402959 -0.0617417 0.425903 -0.0737551 1C-0.0972841 1.51444 -0.120199 2.02888 -0.1425 2.54331C-0.3514 7.36221 -0.506425 12.1811 -0.607574 17C-0.639569 17.8562 0.125571 18.6486 1 18.6386C5 18.7129 9 18.75 13 18.75C13 18.75 13 18.75 13 18.75C13.9331 18.7718 14.7712 17.932 14.7481 17C14.7351 11.6667 14.6562 6.33333 14.5112 1C14.5148 0.193198 13.7806 -0.501871 13 -0.46664C10.0381 -0.378948 7.07612 -0.270901 4.11417 -0.1425C3.07611 -0.0975 2.03806 -0.05 1 0ZM1 0" fill="currentColor"  mask="url(#path-1-inside-1_135_879)"/>
<mask id="path-3-inside-2_135_879" fill="white">
<circle cx="10.5" cy="11.5" r="1.5"/>
</mask>
<path d="M12 11.5C11.9734 11.6574 11.9236 11.8059 11.8547 11.9402C11.5788 12.4842 11.0019 12.7609 10.5 12.7C9.86217 12.6401 9.389 12.079 9.4 11.5C9.4 11.5 9.4 11.5 9.4 11.5C9.389 10.921 9.86217 10.3599 10.5 10.3C11.0019 10.2391 11.5788 10.5158 11.8547 11.0598C11.9236 11.1941 11.9734 11.3426 12 11.5C12.0267 11.3427 12.0275 11.1773 11.9992 11.0128C11.8985 10.3489 11.2648 9.74218 10.5 9.7C9.53985 9.60123 8.57215 10.4811 8.6 11.5C8.6 11.5 8.6 11.5 8.6 11.5C8.57215 12.5189 9.53985 13.3988 10.5 13.3C11.2648 13.2578 11.8985 12.6511 11.9992 11.9872C12.0275 11.8227 12.0267 11.6573 12 11.5ZM12 11.5" fill="currentColor"  mask="url(#path-3-inside-2_135_879)"/>
</svg>
