<svg width="29" height="10" viewBox="0 0 29 10" fill="none" xmlns="http://www.w3.org/2000/svg">
<path d="M21.9992 0.0446757C22.1751 0.215981 22.3519 0.385946 22.5298 0.554571C24.0174 1.96502 25.5742 3.28167 27.2004 4.50451C27.2028 4.50905 27.198 4.50262 27.1992 4.50614C27.198 4.50967 27.2028 4.50317 27.2004 4.50774C25.5926 5.75463 24.0555 7.09429 22.5891 8.5267C22.4137 8.69795 22.2394 8.87053 22.0661 9.04443C22.2798 8.92356 22.4925 8.80137 22.7042 8.67785C24.4747 7.64468 26.1746 6.51874 27.8039 5.30005C28.05 5.1189 28.2047 4.80503 28.1992 4.4987C28.2002 4.19233 28.0408 3.8808 27.792 3.70332C26.1448 2.50899 24.4284 1.40846 22.6426 0.401727C22.4292 0.281369 22.2147 0.162352 21.9992 0.0446757Z" fill="#33101C"/>
<path d="M25.0321 4.52513C24.6152 4.4948 24.1983 4.46613 23.7814 4.43912C20.0296 4.1961 16.2787 4.08808 12.5288 4.11505C8.77892 4.14203 5.02999 4.304 1.28203 4.60096C0.865591 4.63396 0.449162 4.66862 0.0327465 4.70495C0.449641 4.73529 0.866526 4.76396 1.2834 4.79096C5.03524 5.03398 8.78611 5.142 12.536 5.11503C16.2859 5.08806 20.0349 4.92609 23.7828 4.62912C24.1993 4.59612 24.6157 4.56146 25.0321 4.52513Z" fill="#33101C"/>
</svg>
