<svg width="29" height="10" viewBox="0 0 29 10" fill="none" xmlns="http://www.w3.org/2000/svg">
<path d="M21.9982 0.0446757C22.1741 0.215981 22.351 0.385946 22.5288 0.554571C24.0164 1.96502 25.5733 3.28167 27.1994 4.50451C27.2018 4.50905 27.197 4.50262 27.1982 4.50614C27.197 4.50967 27.2018 4.50317 27.1994 4.50774C25.5917 5.75463 24.0545 7.09429 22.5881 8.5267C22.4128 8.69795 22.2384 8.87053 22.0651 9.04443C22.2788 8.92356 22.4915 8.80137 22.7032 8.67785C24.4738 7.64468 26.1737 6.51874 27.8029 5.30005C28.049 5.1189 28.2037 4.80503 28.1982 4.4987C28.1992 4.19233 28.0398 3.8808 27.791 3.70332C26.1439 2.50899 24.4274 1.40846 22.6417 0.401727C22.4282 0.281369 22.2137 0.162352 21.9982 0.0446757Z" fill="#F3EEE6"/>
<path d="M25.0321 4.52464C24.6152 4.49431 24.1983 4.46564 23.7814 4.43864C20.0296 4.19562 16.2787 4.08759 12.5288 4.11457C8.77892 4.14154 5.02999 4.30351 1.28203 4.60047C0.865588 4.63347 0.449158 4.66813 0.0327426 4.70446C0.449638 4.7348 0.866523 4.76347 1.28339 4.79047C5.03524 5.03349 8.78611 5.14151 12.536 5.11454C16.2859 5.08757 20.0349 4.9256 23.7828 4.62863C24.1993 4.59564 24.6157 4.56097 25.0321 4.52464Z" fill="#F3EEE6"/>
</svg>
