<?xml version="1.0" encoding="UTF-8"?>
<svg id="Layer_1" xmlns="http://www.w3.org/2000/svg" xmlns:xlink="http://www.w3.org/1999/xlink" version="1.1" viewBox="0 0 20 20">
  <!-- Generator: Adobe Illustrator 30.2.1, SVG Export Plug-In . SVG Version: 2.1.1 Build 1)  -->
  <defs>
    <style>
      .st0 {
        mask: url(#mask);
      }

      .st1, .st2 {
        fill: currentColor;
      }

      .st1, .st3 {
        fill-opacity: .5;
      }

      .st2 {
        fill-opacity: .6;
      }

      .st4 {
        mask: url(#mask-2);
      }

      .st5 {
        mask: url(#mask-3);
      }

      .st6 {
        mask: url(#mask-4);
      }

      .st7 {
        mask: url(#mask-5);
      }

      .st8 {
        mask: url(#mask-6);
      }

      .st9 {
        mask: url(#mask-1);
      }

      .st10, .st3 {
        fill: #fff;
      }
    </style>
    <mask id="mask" x="0" y=".7" width="20.1" height="19.1" maskUnits="userSpaceOnUse">
      <g id="path-1-inside-1_135_993">
        <path class="st10" d="M.5,2.2c0-.5.4-1,1-1h16.8c.5,0,1,.4,1,1v15.8c0,.5-.4,1-1,1H1.5c-.5,0-1-.4-1-1V2.2Z"/>
      </g>
    </mask>
    <mask id="mask-1" x="3.1" y="6.9" width="3.8" height="3.7" maskUnits="userSpaceOnUse">
      <g id="path-9-inside-2_135_993">
        <path class="st10" d="M3.5,7.9c0-.4.3-.7.7-.7h1.6c.4,0,.7.3.7.7v1.6c0,.4-.3.7-.7.7h-1.6c-.4,0-.7-.3-.7-.7v-1.6Z"/>
      </g>
    </mask>
    <mask id="mask-2" x="3" y="11.9" width="3.9" height="4.7" maskUnits="userSpaceOnUse">
      <g id="path-11-inside-3_135_993">
        <path class="st10" d="M3.5,12.8c0-.4.3-.7.7-.7h1.6c.4,0,.7.3.7.7v2.6c0,.4-.3.7-.7.7h-1.6c-.4,0-.7-.3-.7-.7v-2.6Z"/>
      </g>
    </mask>
    <mask id="mask-3" x="7.1" y="6.8" width="5.7" height="3.8" maskUnits="userSpaceOnUse">
      <g id="path-13-inside-4_135_993">
        <path class="st10" d="M7.4,7.9c0-.4.3-.7.7-.7h3.6c.4,0,.7.3.7.7v1.6c0,.4-.3.7-.7.7h-3.6c-.4,0-.7-.3-.7-.7v-1.6Z"/>
      </g>
    </mask>
    <mask id="mask-4" x="7.1" y="11.8" width="5.8" height="4.8" maskUnits="userSpaceOnUse">
      <g id="path-15-inside-5_135_993">
        <path class="st10" d="M7.4,12.8c0-.4.3-.7.7-.7h3.6c.4,0,.7.3.7.7v2.6c0,.4-.3.7-.7.7h-3.6c-.4,0-.7-.3-.7-.7v-2.6Z"/>
      </g>
    </mask>
    <mask id="mask-5" x="13" y="6.9" width="3.8" height="3.7" maskUnits="userSpaceOnUse">
      <g id="path-17-inside-6_135_993">
        <path class="st10" d="M13.3,7.9c0-.4.3-.7.7-.7h1.6c.4,0,.7.3.7.7v1.6c0,.4-.3.7-.7.7h-1.6c-.4,0-.7-.3-.7-.7v-1.6Z"/>
      </g>
    </mask>
    <mask id="mask-6" x="12.9" y="11.9" width="3.9" height="4.7" maskUnits="userSpaceOnUse">
      <g id="path-19-inside-7_135_993">
        <path class="st10" d="M13.3,12.8c0-.4.3-.7.7-.7h1.6c.4,0,.7.3.7.7v2.6c0,.4-.3.7-.7.7h-1.6c-.4,0-.7-.3-.7-.7v-2.6Z"/>
      </g>
    </mask>
  </defs>
  <g class="st0">
    <path class="st2" d="M1.5,1.2c1.2,0,2.4,0,3.6.1,4.4.2,8.8.3,13.2.4.2,0,.4.2.4.5-.1,5.3-.2,10.5-.2,15.8,0,.1-.1.3-.2.2-5.6,0-11.2,0-16.8.2-.2,0-.4-.2-.4-.4,0-4.6-.2-9.2-.4-13.8,0-.7,0-1.3,0-2,0-.5.4-1,.9-1-.5,0-1,.4-1.1,1,0,.7,0,1.3,0,2C.2,8.8,0,13.4,0,18c0,.8.7,1.6,1.5,1.6,5.6.1,11.2.2,16.8.2h0c.9,0,1.7-.8,1.7-1.7,0-5.3,0-10.5-.2-15.8,0-.8-.7-1.6-1.6-1.5-4.4,0-8.8.2-13.2.4-1.2,0-2.4,0-3.6.1Z"/>
  </g>
  <path class="st3" d="M.5,4.9c.3,0,.6,0,.9,0,2.8.1,5.6.2,8.4.2s5.6,0,8.4-.2c.3,0,.6,0,.9,0-.3,0-.6,0-.9,0-2.8-.1-5.6-.2-8.4-.2s-5.6,0-8.4.2c-.3,0-.6,0-.9,0Z"/>
  <path class="st2" d="M3.4,3.2s0,0,0-.1c0-.4,0-.9,0-1.3s0-.9,0-1.3c0,0,0,0,0-.1,0,0,0,0,0,.1,0,.4,0,.9,0,1.3s0,.9,0,1.3c0,0,0,0,0,.1Z"/>
  <path class="st2" d="M16.2,3.2s0,0,0-.1c0-.4,0-.9,0-1.3s0-.9,0-1.3c0,0,0,0,0-.1,0,0,0,0,0,.1,0,.4,0,.9,0,1.3s0,.9,0,1.3c0,0,0,0,0,.1Z"/>
  <g class="st9">
    <path class="st1" d="M4.1,7.2c.2,0,.4,0,.5,0,.3,0,.7.1,1,.2.2,0,.4.3.3.4,0,.5,0,1.1-.1,1.6,0,.1-.1.2-.2.2-.5,0-1.1,0-1.6,0-.1,0-.3,0-.3-.2,0-.5-.1-1.1-.2-1.6,0-.1,0-.3,0-.4,0-.1.2-.2.4-.3-.2,0-.4,0-.5.1-.2.1-.3.3-.3.6,0,.5-.1,1.1-.2,1.6,0,.6.5,1.1,1.1,1.1.5,0,1.1,0,1.6,0,.6,0,1.2-.6,1.2-1.2,0-.5,0-1.1-.1-1.6,0-.6-.6-1-1.1-.9-.3,0-.7,0-1,.2-.2,0-.4,0-.5,0Z"/>
  </g>
  <g class="st4">
    <path class="st1" d="M4.1,12.1c.2,0,.4,0,.6,0,.3,0,.6,0,.9.1.3,0,.4.3.4.5,0,.9-.1,1.7-.2,2.6,0,.1-.1.2-.2.2-.5,0-1.1,0-1.6,0-.1,0-.3,0-.3-.2,0-.9-.1-1.7-.3-2.6,0-.1,0-.2,0-.4,0-.2.3-.3.5-.3-.2,0-.5,0-.6.2-.1.1-.2.3-.2.5-.1.9-.2,1.7-.3,2.6,0,.6.5,1.2,1.1,1.2.5,0,1.1,0,1.6,0h0c.6,0,1.2-.6,1.2-1.2,0-.9,0-1.7-.2-2.6,0-.5-.5-1-1-.9-.3,0-.6,0-.9.1-.2,0-.4,0-.6,0Z"/>
  </g>
  <g class="st5">
    <path class="st1" d="M8.1,7.2c.2,0,.5,0,.7,0,.9.1,1.9.2,2.8.3.2,0,.3.2.3.3,0,.5,0,1.1,0,1.6,0,.1-.1.2-.2.2-1.2,0-2.4,0-3.6.1-.2,0-.4-.1-.4-.3,0-.5,0-1.1-.2-1.6,0,0,0-.2,0-.3,0-.2.3-.4.5-.4-.2,0-.5,0-.7.3,0,.1-.1.2-.1.4,0,.5-.1,1.1-.2,1.6,0,.5.4,1.1,1,1.1,1.2,0,2.4.1,3.6.1h0c.6,0,1.2-.6,1.2-1.2,0-.5,0-1.1,0-1.6,0-.6-.6-1.1-1.1-1.1-.9,0-1.9.2-2.8.3-.2,0-.5,0-.7,0Z"/>
  </g>
  <g class="st6">
    <path class="st1" d="M8.1,12.1c.3,0,.6,0,.8,0,.9,0,1.8.2,2.7.2.2,0,.3.2.3.4,0,.9,0,1.7,0,2.6,0,.1-.1.2-.2.2-1.2,0-2.4,0-3.6,0-.2,0-.3,0-.4-.3,0-.9-.1-1.7-.2-2.6,0,0,0-.1,0-.2,0-.2.3-.4.6-.5-.3,0-.6.1-.7.4,0,0,0,.2,0,.3,0,.9-.2,1.7-.2,2.6,0,.5.4,1.1,1,1.1,1.2,0,2.4,0,3.6,0h0c.6,0,1.2-.6,1.2-1.2,0-.9,0-1.7,0-2.6,0-.6-.5-1.1-1.1-1-.9,0-1.8.1-2.7.2-.3,0-.6,0-.8,0Z"/>
  </g>
  <g class="st7">
    <path class="st1" d="M14,7.2c.2,0,.4,0,.5,0,.3,0,.7.1,1,.2.2,0,.4.3.3.4,0,.5,0,1.1-.1,1.6,0,.1-.1.2-.2.2-.5,0-1.1,0-1.6,0-.1,0-.3,0-.3-.2,0-.5-.1-1.1-.2-1.6,0-.1,0-.3,0-.4,0-.1.2-.2.4-.3-.2,0-.4,0-.5.1-.2.1-.3.3-.3.6,0,.5-.1,1.1-.2,1.6,0,.6.5,1.1,1.1,1.1.5,0,1.1,0,1.6,0,.6,0,1.2-.6,1.2-1.2,0-.5,0-1.1-.1-1.6,0-.6-.6-1-1.1-.9-.3,0-.7,0-1,.2-.2,0-.4,0-.5,0Z"/>
  </g>
  <g class="st8">
    <path class="st1" d="M14,12.1c.2,0,.4,0,.6,0,.3,0,.6,0,.9.1.3,0,.4.3.4.5,0,.9-.1,1.7-.2,2.6,0,.1-.1.2-.2.2-.5,0-1.1,0-1.6,0-.1,0-.3,0-.3-.2,0-.9-.1-1.7-.3-2.6,0-.1,0-.2,0-.4,0-.2.3-.3.5-.3-.2,0-.5,0-.6.2-.1.1-.2.3-.2.5-.1.9-.2,1.7-.3,2.6,0,.6.5,1.2,1.1,1.2.5,0,1.1,0,1.6,0h0c.6,0,1.2-.6,1.2-1.2,0-.9,0-1.7-.2-2.6,0-.5-.5-1-1-.9-.3,0-.6,0-.9.1-.2,0-.4,0-.6,0Z"/>
  </g>
</svg>