<?xml version="1.0" encoding="UTF-8"?>
<svg id="Layer_1" xmlns="http://www.w3.org/2000/svg" xmlns:xlink="http://www.w3.org/1999/xlink" version="1.1" viewBox="0 0 20 20">
  <!-- Generator: Adobe Illustrator 30.2.1, SVG Export Plug-In . SVG Version: 2.1.1 Build 1)  -->
  <defs>
    <style>
      .st0 {
        mask: url(#mask);
      }

      .st1 {
       fill: currentColor;
      }

      .st2 {
        mask: url(#mask-1);
      }

      .st3 {
        fill: #fff;
      }
    </style>
    <mask id="mask" x="4.3" y="0" width="10.8" height="11.1" maskUnits="userSpaceOnUse">
      <g id="path-1-inside-1_135_1408">
        <circle class="st3" cx="9.9" cy="5.5" r="5.1"/>
      </g>
    </mask>
    <mask id="mask-1" x=".4" y="10.3" width="19.1" height="9.7" maskUnits="userSpaceOnUse">
      <g id="path-3-inside-2_135_1408">
        <path class="st3" d="M3.1,11.4c.1-.4.5-.7,1-.7h11.8c.4,0,.8.3,1,.7l2.3,6.8c.2.7-.3,1.3-1,1.3H1.7c-.7,0-1.2-.7-1-1.3l2.3-6.8Z"/>
      </g>
    </mask>
  </defs>
  <g class="st0">
    <path class="st1" d="M15,5.5c0,.5-.1,1.1-.3,1.6-.8,2-2.8,3.3-4.8,3.2-2.5,0-4.7-2.3-4.6-4.8,0-2.5,2.1-4.7,4.6-4.8,2,0,4,1.2,4.8,3.2.2.5.3,1,.3,1.6,0-.5,0-1.1-.2-1.6C14.4,1.8,12.2,0,9.9,0c-2.9-.2-5.7,2.5-5.6,5.5h0c0,3,2.7,5.7,5.6,5.5,2.3,0,4.5-1.8,5-3.9.1-.5.2-1.1.2-1.6Z"/>
  </g>
  <g class="st2">
    <path class="st1" d="M4,10.7h0c.8,0,1.6,0,2.4,0,3.1.1,6.2.2,9.3.3.3,0,.5.2.6.4.7,2.3,1.4,4.6,2.2,6.8.1.3-.2.7-.5.7-.8,0-1.5,0-2.3,0-4.7,0-9.4,0-14.1.2-.4,0-.8-.5-.7-.9.6-1.9,1.2-3.8,1.7-5.7.1-.4.2-.8.3-1.1.1-.4.5-.7.9-.7h0c-.4,0-.9.3-1,.7-.1.4-.3.7-.4,1.1-.7,1.9-1.4,3.7-2.1,5.6-.3.8.3,1.8,1.2,1.8,4.7.1,9.4.2,14.1.2s1.5,0,2.3,0c1,0,1.8-1.1,1.4-2-.8-2.3-1.6-4.5-2.4-6.8-.2-.6-.8-.9-1.3-.9-3.1,0-6.2.2-9.3.3-.8,0-1.6,0-2.4,0Z"/>
  </g>
</svg>