<svg width="246" height="246" viewBox="0 0 246 246" fill="none" xmlns="http://www.w3.org/2000/svg">
<circle cx="123" cy="123" r="123" fill="#D8CFB6"/>
<mask id="path-2-inside-1_1021_9" fill="white">
<circle cx="123.003" cy="94.1786" r="33.6249"/>
</mask>
<path d="M156.628 94.1786C156.596 97.7051 156.014 101.213 154.9 104.544C150.569 118.007 137.037 127.703 123.003 127.428C105.294 127.765 89.453 111.814 89.8779 94.1786C89.453 76.5429 105.294 60.5924 123.003 60.9287C137.037 60.6545 150.569 70.3496 154.9 83.8136C156.014 87.1444 156.596 90.6521 156.628 94.1786C156.662 90.6522 156.144 87.1234 155.081 83.7549C150.969 70.141 137.365 60.0333 123.003 60.1787C104.891 59.644 88.4319 75.993 88.8779 94.1786C88.4319 112.364 104.891 128.713 123.003 128.178C137.365 128.324 150.969 118.216 155.081 104.602C156.144 101.234 156.662 97.705 156.628 94.1786ZM156.628 94.1786" fill="#33101C" mask="url(#path-2-inside-1_1021_9)"/>
<mask id="path-4-inside-2_1021_9" fill="white">
<path d="M79.54 128.488C79.6761 128.08 80.0582 127.805 80.4887 127.805H165.511C165.941 127.805 166.324 128.08 166.46 128.488L185.007 184.131C185.223 184.779 184.741 185.447 184.059 185.447H61.9411C61.2586 185.447 60.7766 184.779 60.9925 184.131L79.54 128.488Z"/>
</mask>
<path d="M80.4887 127.805C80.4887 127.805 80.4887 127.805 80.4887 127.805C86.0008 127.838 91.513 127.87 97.0251 127.9C119.854 128.024 142.682 128.12 165.511 128.187C165.77 128.184 166.017 128.365 166.094 128.61C172.223 147.176 178.372 165.735 184.54 184.287C184.658 184.596 184.388 184.969 184.059 184.954C177.876 184.949 171.694 184.947 165.511 184.947C130.988 184.947 96.4644 185.013 61.9411 185.143C61.4876 185.165 61.1137 184.655 61.2739 184.225C65.792 170.494 70.2994 156.76 74.7958 143.021C76.3809 138.178 77.9647 133.335 79.5471 128.491C79.671 128.094 80.0692 127.802 80.4887 127.805C80.4887 127.805 80.4887 127.805 80.4887 127.805C80.0695 127.797 79.6636 128.084 79.5328 128.486C77.8924 133.311 76.2533 138.136 74.6156 142.961C69.9698 156.65 65.335 170.342 60.711 184.037C60.4109 184.83 61.0889 185.78 61.9411 185.751C96.4644 185.882 130.988 185.947 165.511 185.947C171.694 185.947 177.876 185.945 184.059 185.941C185.035 185.976 185.817 184.889 185.474 183.975C179.278 165.432 173.062 146.896 166.826 128.367C166.648 127.813 166.091 127.414 165.511 127.423C142.682 127.49 119.854 127.585 97.0251 127.71C91.513 127.74 86.0008 127.771 80.4887 127.805ZM80.4887 127.805" fill="#33101C" mask="url(#path-4-inside-2_1021_9)"/>
</svg>
