<svg width="1244" height="438" viewBox="0 0 1244 438" fill="none" xmlns="http://www.w3.org/2000/svg">
<path d="M768.688 71.8648L733.728 579.546H739.048L1077.25 74.9048C1103.09 36.9048 1107.29 45.2015 1031.45 30.0331L1167.97 75.5383C1133.01 75.5383 1136.53 35.3847 1109.17 74.9048L728.083 636.768L697.746 621.6L721.568 72.6248C724.608 24.7448 717.768 14.8647 669.127 14.8647H676.727H851.528H843.928C780.848 14.8647 771.728 26.2647 768.688 71.8648Z" fill="#603D46"/>
<path d="M815.893 2.00424C1106.19 -20.8045 1357.61 155.911 1594.87 285.463C1596.64 286.361 1598.43 287.262 1600.2 288.159L1620.44 298.38L1604.65 314.674C1383.32 525.33 1083.41 672.647 772.639 648.823C549.476 631.655 348.838 527.471 155.95 427.252C104.242 400.564 52.4819 374.057 0 348.566C53.4156 372.038 106.155 396.664 158.764 421.564C355.392 515.38 556.704 612.508 774.535 624.708C1067.23 641.841 1352.48 502.035 1564.36 306.675C1324.37 174.159 1095.79 11.9555 815.893 27.7194C574.141 24.2972 320.952 74.6109 131.124 233.5C85.6962 269.686 44.3731 311.011 0 348.566C42.8723 309.372 82.6295 266.585 127.065 228.612C312.513 61.8191 570.965 2.71251 815.893 2.00424Z" fill="#603D46"/>
</svg>
