<?xml version="1.0" encoding="UTF-8"?>
<svg id="Layer_1" xmlns="http://www.w3.org/2000/svg" xmlns:xlink="http://www.w3.org/1999/xlink" version="1.1" viewBox="0 0 20 20">
  <!-- Generator: Adobe Illustrator 30.2.1, SVG Export Plug-In . SVG Version: 2.1.1 Build 1)  -->
  <defs>
    <style>
      .st0 {
        mask: url(#mask);
      }

      .st1 {
        fill: currentColor;
      }

      .st2 {
        fill: #fff;
      }
    </style>
    <mask id="mask" x="0" y="3.6" width="20" height="15.8" maskUnits="userSpaceOnUse">
      <g id="path-1-inside-1_135_1011">
        <path class="st2" d="M.4,4.6c0-.3.2-.5.5-.5h18c.3,0,.5.2.5.5v13.8c0,.3-.2.5-.5.5H.9c-.3,0-.5-.2-.5-.5V4.6Z"/>
      </g>
    </mask>
  </defs>
  <g class="st0">
    <path class="st1" d="M.9,4.1c1.1,0,2.2,0,3.4.1,4.9.1,9.8.2,14.7.3,0,0,.1,0,.1.1,0,4.6,0,9.2-.1,13.8,0,0,0,0,0,0-6,0-12,0-18,.2,0,0-.2,0-.2-.2,0-3.8-.2-7.5-.3-11.3,0-.8,0-1.7,0-2.5,0-.3.2-.5.5-.5-.3,0-.6.2-.6.5,0,.8,0,1.7,0,2.5C.2,10.9,0,14.6,0,18.4c0,.5.4.9.9.9,6,.1,12,.2,18,.2h0c.6,0,1.1-.5,1.1-1.1,0-4.6,0-9.2-.1-13.8,0-.5-.5-1-1-.9-4.9,0-9.8.2-14.7.3-1.1,0-2.2,0-3.4.1Z"/>
  </g>
  <path class="st1" d="M8.9,4.1c-.4,0-.8,0-1.2,0-2.4,0-4.7-.2-7.1-.2,0,0,0,0,0,0,0-.9,0-1.8,0-2.8,0,0,0,0,0,0,0,0,0,0,0,0,2.7,0,5.4,0,8.1-.1,0,0,0,0,0,0,.2.6.5,1.3.7,1.9.1.4.3.7.4,1.1-.1-.4-.2-.7-.3-1.1-.2-.7-.4-1.3-.6-2,0-.1-.2-.2-.3-.2-2.7,0-5.4-.1-8.1-.1,0,0,0,0-.1,0-.2,0-.4.3-.4.5,0,.9,0,1.8,0,2.8,0,.2.2.5.5.5,2.4,0,4.7,0,7.1-.2.4,0,.8,0,1.2,0Z"/>
</svg>