<svg width="187" height="75" viewBox="0 0 187 75" fill="none" xmlns="http://www.w3.org/2000/svg">
<path d="M88.7204 8.22359L84.7146 66.7515H85.3242L124.076 8.57405C127.037 4.19322 127.519 5.14971 118.829 3.40103L134.471 8.64708C130.465 8.64708 130.869 4.01799 127.734 8.57405L84.0678 73.3484L80.5917 71.5997L83.3213 8.3112C83.6696 2.79136 82.8858 1.65234 77.3125 1.65234H78.1833H98.2126H97.3417C90.1138 1.65234 89.0688 2.96659 88.7204 8.22359Z" fill="#33101c"/>
<path d="M93.9906 0.23078C127.433 -2.39555 156.397 17.9525 183.729 32.8699C183.932 32.9733 184.138 33.077 184.343 33.1803L186.674 34.3572L184.855 36.2334C159.358 60.4896 124.809 77.4524 89.0078 74.7093C63.2994 72.7324 40.186 60.7361 17.9654 49.1963C12.0086 46.1233 6.0459 43.0711 0 40.1359C6.15346 42.8386 12.229 45.6742 18.2896 48.5413C40.941 59.3438 64.1321 70.5277 89.2262 71.9325C122.944 73.9053 155.805 57.8073 180.213 35.3124C152.567 20.0537 126.234 1.37663 93.9906 3.19177C66.1408 2.79772 36.9735 8.59114 15.1054 26.8865C9.87218 31.0532 5.11177 35.8116 0 40.1359C4.93888 35.6229 9.51889 30.6962 14.6378 26.3237C36.0013 7.11821 65.775 0.312334 93.9906 0.23078Z" fill="#33101c"/>
</svg>
