<?xml version="1.0" encoding="UTF-8"?>
<svg id="Layer_1" xmlns="http://www.w3.org/2000/svg" xmlns:xlink="http://www.w3.org/1999/xlink" version="1.1" viewBox="0 0 20 20">
  <defs>
    <style>
      .st0 {
        mask: url(#mask);
      }

      .st1 {
       
      }

      .st1, .st2 {
       fill: currentColor;
      }

      .st2 {
        
      }

      .st3 {
        mask: url(#mask-1);
      }

      .st4 {
        fill: #fff;
      }
    </style>
    <mask id="mask" x="0" y="7" width="20" height="12.3" maskUnits="userSpaceOnUse">
      <g id="path-1-inside-1_135_882">
        <path class="st4" d="M.4,8.6c0-.5.4-1,1-1h16.8c.5,0,1,.4,1,1v8.9c0,.5-.4,1-1,1H1.4c-.5,0-1-.4-1-1v-8.9Z"/>
      </g>
    </mask>
    <mask id="mask-1" x=".2" y=".7" width="19.3" height="6.6" maskUnits="userSpaceOnUse">
      <g id="path-3-inside-2_135_882">
        <path class="st4" d="M9.7.8c0,0,.2,0,.3,0l8.8,5.3c.3.2.1.6-.2.6H1.1c-.3,0-.4-.4-.2-.6L9.7.8Z"/>
      </g>
    </mask>
  </defs>
  <g class="st0">
    <path class="st1" d="M1.4,7.6c1,0,1.9,0,2.9.1,4.6.2,9.3.4,13.9.5.2,0,.4.2.3.4,0,3,0,5.9,0,8.9,0,.1-.1.3-.2.2-5.6,0-11.2,0-16.8.3-.3,0-.5-.2-.5-.5,0-2.5-.2-5.1-.3-7.6,0-.4,0-.9,0-1.3,0-.5.4-1,.9-1-.5,0-1.1.4-1.1,1,0,.4,0,.9,0,1.3C.2,12.5,0,15,0,17.5c0,.8.6,1.5,1.4,1.5,5.6.2,11.2.3,16.8.3h0c.9,0,1.8-.8,1.7-1.7,0-3,0-5.9,0-8.9,0-.9-.8-1.6-1.6-1.6-4.6,0-9.3.3-13.9.5-1,0-1.9,0-2.9.1Z"/>
  </g>
  <g class="st3">
    <path class="st2" d="M10,.8c.5.4,1.1.8,1.6,1.2,2.3,1.6,4.6,3.1,6.9,4.6-.2-.1-.1-.5.1-.5-3,0-6-.1-9-.1s-5.8,0-8.6.1c.3,0,.4.4.1.5,2.4-1.6,4.8-3.2,7.1-4.8.5-.3.9-.6,1.4-1,0,0,.2,0,.3,0,0,0-.2,0-.3,0-.5.3-1,.5-1.5.8C5.6,2.8,3.1,4.2.6,5.6c-.8.4-.4,1.7.5,1.7,2.9,0,5.8.1,8.6.1s6,0,9-.1c.9,0,1.2-1.3.4-1.6-2.4-1.3-4.8-2.6-7.3-3.9-.6-.3-1.2-.6-1.8-.9Z"/>
  </g>
</svg>