<svg width="28" height="30" viewBox="0 0 28 30" fill="none" xmlns="http://www.w3.org/2000/svg">
<mask id="path-1-inside-1_135_638" fill="white">
<circle cx="9.89986" cy="9.89986" r="9.89986"/>
</mask>
<path d="M19.7997 9.89986C19.6667 10.9383 19.3785 11.932 18.9562 12.8428C17.2754 16.5291 13.4229 18.6192 9.89986 18.2997C5.4324 18.0312 1.9139 14.0733 2 9.89986C1.9139 5.72637 5.43239 1.76851 9.89986 1.5C13.4229 1.18055 17.2754 3.27066 18.9562 6.95692C19.3785 7.86773 19.6667 8.86139 19.7997 9.89986C19.9335 8.8618 19.898 7.7838 19.6791 6.7222C18.8742 2.43616 14.7373 -1.30408 9.89986 -1.5C3.82077 -2.02495 -2.17034 3.5268 -2 9.89986C-2 9.89986 -2 9.89986 -2 9.89986C-2.17034 16.2729 3.82078 21.8247 9.89986 21.2997C14.7373 21.1038 18.8742 17.3635 19.6791 13.0775C19.898 12.0159 19.9335 10.9379 19.7997 9.89986ZM19.7997 9.89986" fill="#33101C" mask="url(#path-1-inside-1_135_638)"/>
<path d="M15.7071 17.2919C15.86 17.5391 16.0152 17.7838 16.1727 18.0263C17.5909 20.2081 19.1999 22.199 20.9999 23.9989C22.7999 25.7989 24.7908 27.408 26.9726 28.8261C27.215 28.9837 27.4598 29.1389 27.7069 29.2917C27.5541 29.0446 27.3989 28.7998 27.2413 28.5574C25.8232 26.3756 24.2141 24.3847 22.4141 22.5847C20.6142 20.7847 18.6233 19.1757 16.4414 17.7576C16.199 17.6 15.9542 17.4448 15.7071 17.2919Z" fill="#33101C"/>
</svg>
