<?xml version="1.0" encoding="UTF-8"?>
<svg id="Layer_1" xmlns="http://www.w3.org/2000/svg" xmlns:xlink="http://www.w3.org/1999/xlink" version="1.1" viewBox="0 0 20 20">
  <!-- Generator: Adobe Illustrator 30.2.1, SVG Export Plug-In . SVG Version: 2.1.1 Build 1)  -->
  <defs>
    <style>
      .st0 {
        mask: url(#mask);
      }

      .st1 {
        fill: currentColor;
      }

      .st2 {
        mask: url(#mask-2);
      }

      .st3 {
        mask: url(#mask-1);
      }

      .st4 {
        fill: #fff;
      }
    </style>
    <mask id="mask" x="4.2" y="4.2" width="15.8" height="10.1" maskUnits="userSpaceOnUse">
      <g id="path-2-inside-1_135_1017">
        <path class="st4" d="M4.2,5.7c-.1-.5.3-1.1.8-1.1h13.7c.6,0,1,.5.8,1.1l-1.8,7.5c0,.4-.4.7-.8.7H6.9c-.4,0-.7-.3-.8-.7l-1.8-7.5Z"/>
      </g>
    </mask>
    <mask id="mask-1" x="6.6" y="13.7" width="4.2" height="4.3" maskUnits="userSpaceOnUse">
      <g id="path-4-inside-2_135_1017">
        <circle class="st4" cx="8.6" cy="15.8" r="2"/>
      </g>
    </mask>
    <mask id="mask-2" x="13.3" y="13.8" width="4.2" height="4.3" maskUnits="userSpaceOnUse">
      <g id="path-6-inside-3_135_1017">
        <circle class="st4" cx="15.3" cy="15.9" r="2"/>
      </g>
    </mask>
  </defs>
  <path class="st1" d="M0,2c.2,0,.4,0,.7,0,.7,0,1.3,0,2,0,.4,0,.7.3.8.6.2.9.5,1.9.7,2.8.5,1.9,1.1,3.9,1.6,5.8,0,.2.1.4.2.6,0-.2-.1-.4-.2-.7-.5-2-1-3.9-1.5-5.8-.3-.9-.5-1.9-.8-2.8-.1-.4-.5-.7-.9-.7-.7,0-1.3,0-2,0C.4,2,.2,2,0,2Z"/>
  <g class="st0">
    <path class="st1" d="M5.1,4.6c.7,0,1.5,0,2.2,0,3.8.1,7.6.2,11.4.3.3,0,.5.3.5.6-.6,2.3-1.2,4.6-1.7,6.8,0,.2-.1.5-.2.7,0,.2-.2.3-.4.3-3.3,0-6.7,0-10,.1-.2,0-.5-.2-.6-.4-.6-2.3-1.2-4.6-1.9-6.8,0-.2-.1-.4-.2-.6-.2-.5.2-1,.8-1.1-.5,0-1,.5-.9,1.1,0,.2,0,.4.1.7.5,2.3,1,4.6,1.5,6.9.1.5.6.9,1.1.9,3.3,0,6.7.1,10,.1.6,0,1.1-.4,1.3-1,0-.2.1-.5.2-.7.6-2.3,1.1-4.6,1.6-6.9.2-.8-.5-1.6-1.2-1.5-3.8,0-7.6.2-11.4.3-.7,0-1.5,0-2.2,0Z"/>
  </g>
  <g class="st3">
    <path class="st1" d="M6.6,15.8c0-.2,0-.4.1-.6.3-.8,1.1-1.3,1.9-1.2,1,0,1.8.9,1.8,1.9,0,.9-.8,1.8-1.8,1.8-.8,0-1.6-.5-1.8-1.3,0-.2-.1-.4-.1-.6,0,.2,0,.4,0,.6.2.8,1,1.5,1.9,1.6,1.2,0,2.3-.9,2.3-2.1h0c0-1.2-1-2.3-2.2-2.2-.9,0-1.8.7-2,1.5,0,.2,0,.4,0,.6Z"/>
  </g>
  <g class="st2">
    <path class="st1" d="M13.3,15.9c0-.2,0-.4.2-.6.3-.8,1.1-1.2,1.9-1.2,1,0,1.8.9,1.7,1.9,0,.9-.8,1.8-1.8,1.8-.8,0-1.6-.5-1.8-1.3,0-.2-.1-.4-.1-.6,0,.2,0,.4,0,.6.2.8,1,1.5,1.9,1.6,1.2,0,2.3-.9,2.3-2.1h0c0-1.2-1-2.3-2.2-2.2-.9,0-1.8.7-2,1.5,0,.2,0,.4,0,.6Z"/>
  </g>
</svg>